<?xml version="1.0" encoding="UTF-8" standalone="no"?>
<!-- Created with Inkscape (http://www.inkscape.org/) -->

<svg
   width="512mm"
   height="512mm"
   viewBox="0 0 512 512"
   version="1.1"
   id="svg5"
   inkscape:version="1.2.1 (9c6d41e410, 2022-07-14)"
   sodipodi:docname="logo.svg"
   xmlns:inkscape="http://www.inkscape.org/namespaces/inkscape"
   xmlns:sodipodi="http://sodipodi.sourceforge.net/DTD/sodipodi-0.dtd"
   xmlns="http://www.w3.org/2000/svg"
   xmlns:svg="http://www.w3.org/2000/svg">
  <sodipodi:namedview
     id="namedview7"
     pagecolor="#505050"
     bordercolor="#eeeeee"
     borderopacity="1"
     inkscape:showpageshadow="0"
     inkscape:pageopacity="0"
     inkscape:pagecheckerboard="0"
     inkscape:deskcolor="#505050"
     inkscape:document-units="mm"
     showgrid="false"
     inkscape:zoom="0.27433372"
     inkscape:cx="612.39281"
     inkscape:cy="787.36219"
     inkscape:window-width="1920"
     inkscape:window-height="1051"
     inkscape:window-x="0"
     inkscape:window-y="0"
     inkscape:window-maximized="1"
     inkscape:current-layer="layer1" />
  <defs
     id="defs2">
    <clipPath
       clipPathUnits="userSpaceOnUse"
       id="clipPath818">
      <ellipse
         style="fill:#ff6600;stroke-width:0.609412;stroke-linejoin:round"
         id="ellipse820"
         cx="130.16245"
         cy="117.25121"
         rx="15.759496"
         ry="24.178646" />
    </clipPath>
  </defs>
  <g
     inkscape:label="Layer 1"
     inkscape:groupmode="layer"
     id="layer1">
    <rect
       style="fill:#ffffff;fill-opacity:0;stroke-width:2.04379;stroke-linejoin:round"
       id="rect477"
       width="489.76929"
       height="489.43896"
       x="12.188529"
       y="6.7329469"
       inkscape:export-filename="logo.png"
       inkscape:export-xdpi="96.268906"
       inkscape:export-ydpi="96.268906" />
    <path
       style="fill:#ffcc00;stroke-width:2.02438;stroke-linejoin:round"
       d="m 17.217681,249.38614 c 0,0 26.765826,-1.92252 125.831329,-2.06159 C 242.1145,247.18542 217.92778,39.669521 306.68805,35.171343 395.44826,30.673158 389.22628,161.65667 495.71905,197.05538 388.28289,236.16883 325.0732,478.60954 224.51513,481.46434 123.95709,484.31912 137.21451,324.61131 85.479613,324.77965 33.744728,324.94777 22.542728,286.33845 22.542728,286.33845"
       id="path283"
       sodipodi:nodetypes="czzczzc" />
    <ellipse
       style="fill:#000000;stroke-width:0.619449;stroke-linejoin:round"
       id="path743"
       cx="362.9205"
       cy="134.33084"
       rx="14.715629"
       ry="14.907345" />
    <path
       style="fill:#ff6600;stroke-width:0.492001;stroke-linejoin:round"
       d="m 13.113486,128.02948 c 0,0 6.547342,-0.46423 30.780323,-0.49781 24.232982,-0.0336 18.316522,-50.14243 40.028677,-51.228605 21.712144,-1.086176 20.190154,30.542395 46.239954,39.090115 -26.28057,9.44472 -41.742657,67.98684 -66.340737,68.67619 -24.598083,0.68935 -21.355108,-37.87527 -34.010275,-37.83463 -12.655166,0.0406 -15.395352,-9.28239 -15.395352,-9.28239"
       id="path809"
       sodipodi:nodetypes="czzczzc"
       clip-path="url(#clipPath818)"
       transform="matrix(4.088045,0,0,4.1413037,-36.390837,-280.82283)" />
  </g>
</svg>
